<svg height="20" width="20" xmlns="http://www.w3.org/2000/svg"><path d="m63.999997 57.599693a6.4017648 6.4018415 0 0 1 -6.400992 6.400307h-51.1957023c-3.5358171-.029931-6.4032992-2.801523-6.4032992-6.400307v-51.1993854c0-3.5327923 2.8674821-6.4003076 6.4032992-6.4003076h51.1957023c3.53352 0 6.299709 2.7715997 6.299709 6.4003076v51.1993854z" fill="#37aee2" stroke-width=".767326"/><g stroke-width=".125"><path d="m24.875005 50.499999c-1.375 0-1.25-.5-1.625-1.75l-4-13.125 30.625-18" fill="#c8daea"/><path d="m24.875005 50.499999c.875 0 1.375-.5 2-1l5.625-5.375-7-4.25" fill="#a9c9dd"/><path d="m25.500005 39.874999 16.875 12.375c1.75 1.125 3.25.5 3.75-1.75l6.875-32.25c.625-2.75-1.125-4-3-3.125l-40.125 15.5c-2.625 1-2.625 2.625-.5 3.25l10.375 3.25 23.75-15.125c1.125-.625 2.125-.375 1.375.5" fill="#f6fbfe"/></g></svg>